<mxfile host="www.draw.io" modified="2020-03-13T12:52:11.669Z" agent="Mozilla/5.0 (Windows NT 10.0; Win64; x64) AppleWebKit/537.36 (KHTML, like Gecko) Chrome/80.0.3987.132 Safari/537.36" etag="8uGeDPywIaOQyPQt4qkF" version="12.8.4" type="github">
  <diagram name="Page-1" id="c7558073-3199-34d8-9f00-42111426c3f3">
    <mxGraphModel dx="3555" dy="1905" grid="1" gridSize="10" guides="1" tooltips="1" connect="1" arrows="1" fold="1" page="1" pageScale="1" pageWidth="826" pageHeight="1169" background="#ffffff" math="0" shadow="0">
      <root>
        <mxCell id="0" />
        <mxCell id="1" parent="0" />
        <mxCell id="4Jo5QajGv81evl4tihkQ-206" value="" style="rounded=0;whiteSpace=wrap;html=1;shadow=0;labelBackgroundColor=none;strokeColor=#FF8000;fillColor=none;fontFamily=Helvetica;fontSize=12;fontColor=#000000;align=center;" parent="1" vertex="1">
          <mxGeometry x="40" y="609" width="70" height="181" as="geometry" />
        </mxCell>
        <mxCell id="4Jo5QajGv81evl4tihkQ-199" value="&lt;span style=&quot;text-align: center ; white-space: nowrap&quot;&gt;Шаблоны страниц, выбираются&amp;nbsp;&lt;/span&gt;&lt;span style=&quot;text-align: center ; white-space: nowrap&quot;&gt;независимо друг от друга&lt;/span&gt;" style="shape=mxgraph.ibm.box;prType=subnet;fontStyle=0;verticalAlign=top;align=left;spacingLeft=32;spacingTop=4;fillColor=#F0F0F0;rounded=0;whiteSpace=wrap;html=1;strokeColor=#00882B;strokeWidth=1;dashed=0;container=1;spacing=-4;collapsible=0;labelBackgroundColor=none;fontFamily=Helvetica;fontSize=12;fontColor=#000000;" parent="1" vertex="1">
          <mxGeometry x="28" y="401" width="450" height="160" as="geometry" />
        </mxCell>
        <mxCell id="4Jo5QajGv81evl4tihkQ-197" value="&lt;div style=&quot;text-align: center&quot;&gt;&lt;span style=&quot;white-space: nowrap&quot;&gt;Скин темы&lt;/span&gt;&lt;/div&gt;" style="shape=mxgraph.ibm.box;prType=subnet;fontStyle=0;verticalAlign=top;align=left;spacingLeft=32;spacingTop=4;fillColor=#FFFBED;rounded=0;whiteSpace=wrap;html=1;strokeColor=#d6b656;strokeWidth=1;dashed=0;container=1;spacing=-4;collapsible=0;labelBackgroundColor=none;fontFamily=Helvetica;fontSize=12;shadow=0;fillOpacity=100;" parent="1" vertex="1">
          <mxGeometry x="135" y="212" width="236" height="127" as="geometry" />
        </mxCell>
        <mxCell id="4Jo5QajGv81evl4tihkQ-200" style="edgeStyle=orthogonalEdgeStyle;rounded=0;orthogonalLoop=1;jettySize=auto;html=1;fontFamily=Helvetica;fontSize=12;fontColor=#000000;" parent="1" source="4Jo5QajGv81evl4tihkQ-192" target="4Jo5QajGv81evl4tihkQ-183" edge="1">
          <mxGeometry relative="1" as="geometry" />
        </mxCell>
        <mxCell id="4Jo5QajGv81evl4tihkQ-192" value="&lt;div style=&quot;text-align: center&quot;&gt;&lt;span style=&quot;white-space: nowrap&quot;&gt;Скин темы&lt;/span&gt;&lt;/div&gt;" style="shape=mxgraph.ibm.box;prType=subnet;fontStyle=0;verticalAlign=top;align=left;spacingLeft=32;spacingTop=4;fillColor=#fff2cc;rounded=0;whiteSpace=wrap;html=1;strokeColor=#d6b656;strokeWidth=1;dashed=0;container=1;spacing=-4;collapsible=0;labelBackgroundColor=none;fontFamily=Helvetica;fontSize=12;shadow=0;" parent="1" vertex="1">
          <mxGeometry x="127" y="203" width="236" height="127" as="geometry" />
        </mxCell>
        <mxCell id="4Jo5QajGv81evl4tihkQ-183" value="&lt;span style=&quot;text-align: center ; white-space: nowrap&quot;&gt;Шаблоны страниц, выбираются&amp;nbsp;&lt;/span&gt;&lt;span style=&quot;text-align: center ; white-space: nowrap&quot;&gt;независимо друг от друга&lt;/span&gt;" style="shape=mxgraph.ibm.box;prType=subnet;fontStyle=0;verticalAlign=top;align=left;spacingLeft=32;spacingTop=4;fillColor=#E6F0E2;rounded=0;whiteSpace=wrap;html=1;strokeColor=#00882B;strokeWidth=1;dashed=0;container=1;spacing=-4;collapsible=0;labelBackgroundColor=none;fontFamily=Helvetica;fontSize=12;fontColor=#000000;shadow=0;" parent="1" vertex="1">
          <mxGeometry x="20" y="392" width="450" height="160" as="geometry" />
        </mxCell>
        <mxCell id="4Jo5QajGv81evl4tihkQ-172" style="rounded=0;orthogonalLoop=1;jettySize=auto;html=1;fontSize=12;edgeStyle=orthogonalEdgeStyle;exitX=0.5;exitY=1;exitDx=0;exitDy=0;exitPerimeter=0;" parent="1" source="4Jo5QajGv81evl4tihkQ-97" target="4Jo5QajGv81evl4tihkQ-192" edge="1">
          <mxGeometry relative="1" as="geometry">
            <mxPoint x="245" y="180" as="targetPoint" />
          </mxGeometry>
        </mxCell>
        <mxCell id="4Jo5QajGv81evl4tihkQ-97" value="Страница поиска" style="whiteSpace=wrap;html=1;shape=mxgraph.basic.document" parent="1" vertex="1">
          <mxGeometry x="36" y="40" width="80" height="100" as="geometry" />
        </mxCell>
        <mxCell id="4Jo5QajGv81evl4tihkQ-193" style="edgeStyle=orthogonalEdgeStyle;rounded=0;orthogonalLoop=1;jettySize=auto;html=1;fontFamily=Helvetica;fontSize=12;fontColor=#000000;" parent="1" source="4Jo5QajGv81evl4tihkQ-98" target="4Jo5QajGv81evl4tihkQ-192" edge="1">
          <mxGeometry relative="1" as="geometry" />
        </mxCell>
        <mxCell id="4Jo5QajGv81evl4tihkQ-98" value="Страница объекта" style="whiteSpace=wrap;html=1;shape=mxgraph.basic.document" parent="1" vertex="1">
          <mxGeometry x="146" y="40" width="80" height="100" as="geometry" />
        </mxCell>
        <mxCell id="4Jo5QajGv81evl4tihkQ-194" style="edgeStyle=orthogonalEdgeStyle;rounded=0;orthogonalLoop=1;jettySize=auto;html=1;fontFamily=Helvetica;fontSize=12;fontColor=#000000;" parent="1" source="4Jo5QajGv81evl4tihkQ-99" target="4Jo5QajGv81evl4tihkQ-192" edge="1">
          <mxGeometry relative="1" as="geometry" />
        </mxCell>
        <mxCell id="4Jo5QajGv81evl4tihkQ-99" value="Домашняя страница" style="whiteSpace=wrap;html=1;shape=mxgraph.basic.document" parent="1" vertex="1">
          <mxGeometry x="256" y="40" width="80" height="100" as="geometry" />
        </mxCell>
        <mxCell id="4Jo5QajGv81evl4tihkQ-195" style="edgeStyle=orthogonalEdgeStyle;rounded=0;orthogonalLoop=1;jettySize=auto;html=1;fontFamily=Helvetica;fontSize=12;fontColor=#000000;exitX=0.5;exitY=1;exitDx=0;exitDy=0;exitPerimeter=0;" parent="1" source="4Jo5QajGv81evl4tihkQ-100" target="4Jo5QajGv81evl4tihkQ-192" edge="1">
          <mxGeometry relative="1" as="geometry" />
        </mxCell>
        <mxCell id="4Jo5QajGv81evl4tihkQ-100" value="Обычная страница" style="whiteSpace=wrap;html=1;shape=mxgraph.basic.document" parent="1" vertex="1">
          <mxGeometry x="366" y="40" width="80" height="100" as="geometry" />
        </mxCell>
        <mxCell id="4Jo5QajGv81evl4tihkQ-211" style="edgeStyle=orthogonalEdgeStyle;rounded=0;orthogonalLoop=1;jettySize=auto;html=1;fontFamily=Helvetica;fontSize=12;fontColor=#000000;" parent="1" source="4Jo5QajGv81evl4tihkQ-109" target="4Jo5QajGv81evl4tihkQ-206" edge="1">
          <mxGeometry relative="1" as="geometry" />
        </mxCell>
        <mxCell id="4Jo5QajGv81evl4tihkQ-109" value="&lt;span style=&quot;&quot;&gt;PHP шаблон&lt;br&gt;страницы&lt;br&gt;&lt;/span&gt;" style="shape=image;html=1;verticalAlign=top;verticalLabelPosition=bottom;labelBackgroundColor=none;imageAspect=0;aspect=fixed;image=https://cdn1.iconfinder.com/data/icons/hawcons/32/699595-icon-86-document-file-php-128.png" parent="1" vertex="1">
          <mxGeometry x="45.5" y="432" width="59" height="59" as="geometry" />
        </mxCell>
        <mxCell id="4Jo5QajGv81evl4tihkQ-212" style="edgeStyle=orthogonalEdgeStyle;rounded=0;orthogonalLoop=1;jettySize=auto;html=1;entryX=0.5;entryY=0;entryDx=0;entryDy=0;fontFamily=Helvetica;fontSize=12;fontColor=#000000;" parent="1" source="4Jo5QajGv81evl4tihkQ-120" target="4Jo5QajGv81evl4tihkQ-207" edge="1">
          <mxGeometry relative="1" as="geometry" />
        </mxCell>
        <mxCell id="4Jo5QajGv81evl4tihkQ-120" value="&lt;span style=&quot;&quot;&gt;PHP шаблон&lt;br&gt;страницы&lt;br&gt;&lt;/span&gt;" style="shape=image;html=1;verticalAlign=top;verticalLabelPosition=bottom;labelBackgroundColor=none;imageAspect=0;aspect=fixed;image=https://cdn1.iconfinder.com/data/icons/hawcons/32/699595-icon-86-document-file-php-128.png" parent="1" vertex="1">
          <mxGeometry x="155.5" y="432" width="59" height="59" as="geometry" />
        </mxCell>
        <mxCell id="4Jo5QajGv81evl4tihkQ-213" style="edgeStyle=orthogonalEdgeStyle;rounded=0;orthogonalLoop=1;jettySize=auto;html=1;entryX=0.5;entryY=0;entryDx=0;entryDy=0;fontFamily=Helvetica;fontSize=12;fontColor=#000000;" parent="1" source="4Jo5QajGv81evl4tihkQ-123" target="4Jo5QajGv81evl4tihkQ-208" edge="1">
          <mxGeometry relative="1" as="geometry" />
        </mxCell>
        <mxCell id="4Jo5QajGv81evl4tihkQ-123" value="&lt;span style=&quot;&quot;&gt;PHP шаблон&lt;br&gt;страницы&lt;br&gt;&lt;/span&gt;" style="shape=image;html=1;verticalAlign=top;verticalLabelPosition=bottom;labelBackgroundColor=none;imageAspect=0;aspect=fixed;image=https://cdn1.iconfinder.com/data/icons/hawcons/32/699595-icon-86-document-file-php-128.png" parent="1" vertex="1">
          <mxGeometry x="266.5" y="432" width="59" height="59" as="geometry" />
        </mxCell>
        <mxCell id="4Jo5QajGv81evl4tihkQ-214" style="edgeStyle=orthogonalEdgeStyle;rounded=0;orthogonalLoop=1;jettySize=auto;html=1;entryX=0.5;entryY=0;entryDx=0;entryDy=0;fontFamily=Helvetica;fontSize=12;fontColor=#000000;" parent="1" source="4Jo5QajGv81evl4tihkQ-126" target="4Jo5QajGv81evl4tihkQ-209" edge="1">
          <mxGeometry relative="1" as="geometry" />
        </mxCell>
        <mxCell id="4Jo5QajGv81evl4tihkQ-126" value="&lt;span style=&quot;&quot;&gt;PHP шаблон&lt;br&gt;страницы&lt;br&gt;&lt;/span&gt;" style="shape=image;html=1;verticalAlign=top;verticalLabelPosition=bottom;labelBackgroundColor=none;imageAspect=0;aspect=fixed;image=https://cdn1.iconfinder.com/data/icons/hawcons/32/699595-icon-86-document-file-php-128.png" parent="1" vertex="1">
          <mxGeometry x="376.5" y="432" width="59" height="59" as="geometry" />
        </mxCell>
        <mxCell id="4Jo5QajGv81evl4tihkQ-145" value="" style="group" parent="1" vertex="1" connectable="0">
          <mxGeometry x="56" y="717" width="38" height="64" as="geometry" />
        </mxCell>
        <mxCell id="4Jo5QajGv81evl4tihkQ-142" value="" style="shape=image;html=1;verticalAlign=top;verticalLabelPosition=bottom;labelBackgroundColor=#ffffff;imageAspect=0;aspect=fixed;image=https://cdn1.iconfinder.com/data/icons/hawcons/32/699766-icon-12-file-css-128.png;fillColor=#ffffff;fontSize=12;align=center;" parent="4Jo5QajGv81evl4tihkQ-145" vertex="1">
          <mxGeometry x="-1" width="38" height="38" as="geometry" />
        </mxCell>
        <mxCell id="4Jo5QajGv81evl4tihkQ-144" value="" style="shape=image;html=1;verticalAlign=top;verticalLabelPosition=bottom;labelBackgroundColor=#ffffff;imageAspect=0;aspect=fixed;image=https://cdn2.iconfinder.com/data/icons/designer-skills/128/code-programming-javascript-software-develop-command-language-128.png;fillColor=#ffffff;fontSize=12;align=center;" parent="4Jo5QajGv81evl4tihkQ-145" vertex="1">
          <mxGeometry x="5" y="38" width="26" height="26" as="geometry" />
        </mxCell>
        <mxCell id="4Jo5QajGv81evl4tihkQ-147" value="" style="group" parent="1" vertex="1" connectable="0">
          <mxGeometry x="166" y="717" width="38" height="64" as="geometry" />
        </mxCell>
        <mxCell id="4Jo5QajGv81evl4tihkQ-148" value="" style="shape=image;html=1;verticalAlign=top;verticalLabelPosition=bottom;labelBackgroundColor=#ffffff;imageAspect=0;aspect=fixed;image=https://cdn1.iconfinder.com/data/icons/hawcons/32/699766-icon-12-file-css-128.png;fillColor=#ffffff;fontSize=12;align=center;" parent="4Jo5QajGv81evl4tihkQ-147" vertex="1">
          <mxGeometry width="38" height="38" as="geometry" />
        </mxCell>
        <mxCell id="4Jo5QajGv81evl4tihkQ-149" value="" style="shape=image;html=1;verticalAlign=top;verticalLabelPosition=bottom;labelBackgroundColor=#ffffff;imageAspect=0;aspect=fixed;image=https://cdn2.iconfinder.com/data/icons/designer-skills/128/code-programming-javascript-software-develop-command-language-128.png;fillColor=#ffffff;fontSize=12;align=center;" parent="4Jo5QajGv81evl4tihkQ-147" vertex="1">
          <mxGeometry x="6" y="38" width="26" height="26" as="geometry" />
        </mxCell>
        <mxCell id="4Jo5QajGv81evl4tihkQ-150" value="" style="group" parent="1" vertex="1" connectable="0">
          <mxGeometry x="277" y="717" width="38" height="64" as="geometry" />
        </mxCell>
        <mxCell id="4Jo5QajGv81evl4tihkQ-151" value="" style="shape=image;html=1;verticalAlign=top;verticalLabelPosition=bottom;labelBackgroundColor=#ffffff;imageAspect=0;aspect=fixed;image=https://cdn1.iconfinder.com/data/icons/hawcons/32/699766-icon-12-file-css-128.png;fillColor=#ffffff;fontSize=12;align=center;" parent="4Jo5QajGv81evl4tihkQ-150" vertex="1">
          <mxGeometry width="38" height="38" as="geometry" />
        </mxCell>
        <mxCell id="4Jo5QajGv81evl4tihkQ-152" value="" style="shape=image;html=1;verticalAlign=top;verticalLabelPosition=bottom;labelBackgroundColor=#ffffff;imageAspect=0;aspect=fixed;image=https://cdn2.iconfinder.com/data/icons/designer-skills/128/code-programming-javascript-software-develop-command-language-128.png;fillColor=#ffffff;fontSize=12;align=center;" parent="4Jo5QajGv81evl4tihkQ-150" vertex="1">
          <mxGeometry x="6" y="38" width="26" height="26" as="geometry" />
        </mxCell>
        <mxCell id="4Jo5QajGv81evl4tihkQ-153" value="" style="group" parent="1" vertex="1" connectable="0">
          <mxGeometry x="387" y="717" width="38" height="64" as="geometry" />
        </mxCell>
        <mxCell id="4Jo5QajGv81evl4tihkQ-154" value="" style="shape=image;html=1;verticalAlign=top;verticalLabelPosition=bottom;labelBackgroundColor=#ffffff;imageAspect=0;aspect=fixed;image=https://cdn1.iconfinder.com/data/icons/hawcons/32/699766-icon-12-file-css-128.png;fillColor=#ffffff;fontSize=12;align=center;" parent="4Jo5QajGv81evl4tihkQ-153" vertex="1">
          <mxGeometry width="38" height="38" as="geometry" />
        </mxCell>
        <mxCell id="4Jo5QajGv81evl4tihkQ-155" value="" style="shape=image;html=1;verticalAlign=top;verticalLabelPosition=bottom;labelBackgroundColor=#ffffff;imageAspect=0;aspect=fixed;image=https://cdn2.iconfinder.com/data/icons/designer-skills/128/code-programming-javascript-software-develop-command-language-128.png;fillColor=#ffffff;fontSize=12;align=center;" parent="4Jo5QajGv81evl4tihkQ-153" vertex="1">
          <mxGeometry x="6" y="38" width="26" height="26" as="geometry" />
        </mxCell>
        <mxCell id="4Jo5QajGv81evl4tihkQ-161" value="Опции&amp;nbsp;&lt;br&gt;шаблона" style="aspect=fixed;perimeter=ellipsePerimeter;html=1;align=center;shadow=0;dashed=0;fontColor=#4277BB;labelBackgroundColor=#ffffff;fontSize=12;spacingTop=3;image;image=img/lib/ibm/devops/configuration_management.svg;fillColor=#ffffff;" parent="1" vertex="1">
          <mxGeometry x="55" y="629" width="40" height="40" as="geometry" />
        </mxCell>
        <mxCell id="4Jo5QajGv81evl4tihkQ-165" value="Опции&amp;nbsp;&lt;br&gt;шаблона" style="aspect=fixed;perimeter=ellipsePerimeter;html=1;align=center;shadow=0;dashed=0;fontColor=#4277BB;labelBackgroundColor=#ffffff;fontSize=12;spacingTop=3;image;image=img/lib/ibm/devops/configuration_management.svg;fillColor=#ffffff;" parent="1" vertex="1">
          <mxGeometry x="165" y="629" width="40" height="40" as="geometry" />
        </mxCell>
        <mxCell id="4Jo5QajGv81evl4tihkQ-166" value="Опции&amp;nbsp;&lt;br&gt;шаблона" style="aspect=fixed;perimeter=ellipsePerimeter;html=1;align=center;shadow=0;dashed=0;fontColor=#4277BB;labelBackgroundColor=#ffffff;fontSize=12;spacingTop=3;image;image=img/lib/ibm/devops/configuration_management.svg;fillColor=#ffffff;" parent="1" vertex="1">
          <mxGeometry x="276" y="629" width="40" height="40" as="geometry" />
        </mxCell>
        <mxCell id="4Jo5QajGv81evl4tihkQ-167" value="Опции&amp;nbsp;&lt;br&gt;шаблона" style="aspect=fixed;perimeter=ellipsePerimeter;html=1;align=center;shadow=0;dashed=0;fontColor=#4277BB;labelBackgroundColor=#ffffff;fontSize=12;spacingTop=3;image;image=img/lib/ibm/devops/configuration_management.svg;fillColor=#ffffff;" parent="1" vertex="1">
          <mxGeometry x="386" y="629" width="40" height="40" as="geometry" />
        </mxCell>
        <mxCell id="4Jo5QajGv81evl4tihkQ-169" value="UI Kit,&lt;br&gt;Reset,&lt;br&gt;Base" style="shape=image;html=1;verticalAlign=top;verticalLabelPosition=bottom;labelBackgroundColor=none;imageAspect=0;aspect=fixed;image=https://cdn1.iconfinder.com/data/icons/hawcons/32/699766-icon-12-file-css-128.png;fillColor=#ffffff;fontSize=12;align=center;spacing=-3;" parent="1" vertex="1">
          <mxGeometry x="149" y="228" width="38" height="38" as="geometry" />
        </mxCell>
        <mxCell id="4Jo5QajGv81evl4tihkQ-170" value="Global Fn&lt;br&gt;" style="shape=image;html=1;verticalAlign=top;verticalLabelPosition=bottom;labelBackgroundColor=none;imageAspect=0;aspect=fixed;image=https://cdn2.iconfinder.com/data/icons/designer-skills/128/code-programming-javascript-software-develop-command-language-128.png;fillColor=#ffffff;fontSize=12;align=center;" parent="1" vertex="1">
          <mxGeometry x="302" y="234" width="26" height="26" as="geometry" />
        </mxCell>
        <mxCell id="4Jo5QajGv81evl4tihkQ-189" value="&lt;span style=&quot;&quot;&gt;Опции&lt;br&gt;темы&lt;/span&gt;" style="html=1;verticalLabelPosition=bottom;align=center;labelBackgroundColor=none;verticalAlign=top;strokeWidth=2;strokeColor=#0080F0;shadow=0;dashed=0;shape=mxgraph.ios7.icons.options;pointerEvents=1;fillColor=#ffffff;fontFamily=Helvetica;fontSize=12;fontColor=#000000;" parent="1" vertex="1">
          <mxGeometry x="227" y="239.5" width="30" height="15" as="geometry" />
        </mxCell>
        <mxCell id="4Jo5QajGv81evl4tihkQ-207" value="" style="rounded=0;whiteSpace=wrap;html=1;shadow=0;labelBackgroundColor=none;strokeColor=#FF8000;fillColor=none;fontFamily=Helvetica;fontSize=12;fontColor=#000000;align=center;" parent="1" vertex="1">
          <mxGeometry x="150" y="609" width="70" height="181" as="geometry" />
        </mxCell>
        <mxCell id="4Jo5QajGv81evl4tihkQ-208" value="" style="rounded=0;whiteSpace=wrap;html=1;shadow=0;labelBackgroundColor=none;strokeColor=#FF8000;fillColor=none;fontFamily=Helvetica;fontSize=12;fontColor=#000000;align=center;" parent="1" vertex="1">
          <mxGeometry x="261" y="609" width="70" height="181" as="geometry" />
        </mxCell>
        <mxCell id="4Jo5QajGv81evl4tihkQ-209" value="" style="rounded=0;whiteSpace=wrap;html=1;shadow=0;labelBackgroundColor=none;strokeColor=#FF8000;fillColor=none;fontFamily=Helvetica;fontSize=12;fontColor=#000000;align=center;" parent="1" vertex="1">
          <mxGeometry x="371" y="609" width="70" height="181" as="geometry" />
        </mxCell>
        <mxCell id="4Jo5QajGv81evl4tihkQ-215" value="" style="rounded=0;whiteSpace=wrap;html=1;shadow=0;labelBackgroundColor=none;strokeColor=none;fillColor=none;fontFamily=Helvetica;fontSize=12;fontColor=#000000;align=center;" parent="1" vertex="1">
          <mxGeometry width="820" height="1160" as="geometry" />
        </mxCell>
        <mxCell id="FcUqH7CvQ5_sO2VqndJb-20" value="&lt;p style=&quot;line-height: 80%&quot;&gt;&lt;/p&gt;&lt;span&gt;- UI Kit содержит CSS правила, определяющие внешний&lt;br&gt;вид всех&amp;nbsp;&lt;/span&gt;&lt;span&gt;известных HTML элементов, но не их расположение&lt;br&gt;внутри страниц.&lt;/span&gt;&lt;br&gt;&lt;span&gt;&lt;br&gt;- Reset комплект сбрасывает стили браузера&lt;br&gt;&lt;/span&gt;&lt;br&gt;- Base - содержит основные CSS правила, применяющиеся&lt;br&gt;на всех&amp;nbsp;страницах&amp;nbsp;темы&lt;br&gt;&lt;br&gt;- Опции темы (стилевые) являются inline CSS, которые призваны&lt;br&gt;переопределить какие-либо правила базовых стилей (основной&lt;br&gt;цвет, цвет ссылок, основной шрифт и т.д.)&lt;br&gt;&lt;p&gt;&lt;/p&gt;" style="strokeWidth=2;html=1;shape=mxgraph.flowchart.annotation_2;align=left;labelPosition=right;pointerEvents=1;verticalAlign=middle;" vertex="1" parent="1">
          <mxGeometry x="371" y="190" width="46" height="170" as="geometry" />
        </mxCell>
        <mxCell id="FcUqH7CvQ5_sO2VqndJb-23" value="&lt;p style=&quot;line-height: 80%&quot;&gt;&lt;/p&gt;PHP шаблоны отвечают только за сборку&lt;br&gt;контента с точки зрения HTML структуры и HTML&lt;br&gt;аттрибутов тем самым расширяя плоскости&lt;br&gt;свободы при необходимости изменить порядок&lt;br&gt;элементов (можно создать новый шаблон и&lt;br&gt;вывести элементы по-другому не теряя прежние&lt;br&gt;наработки)&lt;br&gt;&lt;p&gt;&lt;/p&gt;" style="strokeWidth=2;html=1;shape=mxgraph.flowchart.annotation_2;align=left;labelPosition=right;pointerEvents=1;verticalAlign=middle;" vertex="1" parent="1">
          <mxGeometry x="470" y="396" width="46" height="170" as="geometry" />
        </mxCell>
        <mxCell id="FcUqH7CvQ5_sO2VqndJb-24" value="&lt;p style=&quot;line-height: 80%&quot;&gt;&lt;/p&gt;Опции шаблона позволяют незначительно&lt;br&gt;модифицировать порядок HTML&amp;nbsp;элементов&lt;br&gt;конечных страниц - карта есть/нет, сайдбар&lt;br&gt;слева/справа/отсутствует и т.д.&lt;br&gt;&lt;p&gt;&lt;/p&gt;" style="strokeWidth=2;html=1;shape=mxgraph.flowchart.annotation_2;align=left;labelPosition=right;pointerEvents=1;verticalAlign=middle;" vertex="1" parent="1">
          <mxGeometry x="446" y="614.5" width="46" height="170" as="geometry" />
        </mxCell>
      </root>
    </mxGraphModel>
  </diagram>
</mxfile>
